%FSLAX23Y23*%
%MOIN*%
%LNBottomCopper*%
%ADD10C,.012*%
%ADD11C,.053*%
%ADD12C,.055*%
%ADD13R,.007X.007*%
G36*
G01X505Y2316D02*
X1191D01*
Y1436D01*
X505D01*
Y2316D01*
G37*
G36*
X354Y2441D02*
X990D01*
Y2219D01*
X354D01*
Y2441D01*
G37*
G36*
X301Y1635D02*
X534D01*
Y1437D01*
X301D01*
Y1635D01*
G37*
G36*
X1138Y2316D02*
X1426D01*
Y1437D01*
X1138D01*
Y2316D01*
G37*
G36*
X505Y1060D02*
X1191D01*
Y180D01*
X505D01*
Y1060D01*
G37*
G36*
X354Y1185D02*
X990D01*
Y963D01*
X354D01*
Y1185D01*
G37*
G36*
X301Y379D02*
X534D01*
Y181D01*
X301D01*
Y379D01*
G37*
G36*
X1138Y1060D02*
X1426D01*
Y180D01*
X1138D01*
Y1060D01*
G37*
G36*
X2411Y1060D02*
X3098D01*
Y180D01*
X2411D01*
Y1060D01*
G37*
G36*
X2260Y1185D02*
X2897D01*
Y963D01*
X2260D01*
Y1185D01*
G37*
G36*
X2208Y379D02*
X2441D01*
Y181D01*
X2208D01*
Y379D01*
G37*
G36*
X3045Y1060D02*
X3333D01*
Y180D01*
X3045D01*
Y1060D01*
G37*
G36*
X2411Y2316D02*
X3098D01*
Y1436D01*
X2411D01*
Y2316D01*
G37*
G36*
X2260Y2441D02*
X2897D01*
Y2219D01*
X2260D01*
Y2441D01*
G37*
G36*
X2208Y1635D02*
X2441D01*
Y1437D01*
X2208D01*
Y1635D01*
G37*
G36*
X3045Y2317D02*
X3333D01*
Y1437D01*
X3045D01*
Y2317D01*
G37*
D10*
X337Y1828D02*
X456Y1829D01*
X337Y572D02*
X456D01*
X2243D02*
X2362D01*
X2243Y1828D02*
X2362Y1829D01*
D11*
X768Y2182D03*
X568Y1907D03*
Y1582D03*
X1503Y2236D03*
X1649D03*
X456Y1829D03*
X337Y1828D03*
X768Y926D03*
X568Y651D03*
Y326D03*
X1503Y979D03*
X1649D03*
X456Y572D03*
X337D03*
X2675Y926D03*
X2475Y651D03*
Y326D03*
X3410Y979D03*
X3555D03*
X2362Y572D03*
X2243D03*
X2675Y2182D03*
X2475Y1907D03*
Y1582D03*
X3410Y2236D03*
X3555D03*
X2362Y1829D03*
X2243Y1828D03*
D12*
X392Y1732D03*
X912Y2388D03*
X1071D03*
X400Y2345D03*
X200D03*
X299Y2245D03*
X394Y1565D03*
X1357Y2236D03*
X392Y475D03*
X912Y1132D03*
X1071D03*
X400Y1089D03*
X200D03*
X299Y989D03*
X394Y309D03*
X1357Y979D03*
X2298Y475D03*
X2818Y1132D03*
X2978D03*
X2307Y1089D03*
X2107D03*
X2205Y989D03*
X2301Y309D03*
X3264Y979D03*
X2298Y1732D03*
X2818Y2388D03*
X2978D03*
X2307Y2345D03*
X2107D03*
X2205Y2245D03*
X2301Y1565D03*
X3264Y2236D03*
M02*
