%FSLAX23Y23*%
%MOIN*%
%LNTopCopper*%
%ADD10C,.012*%
%ADD11C,.053*%
%ADD12C,.055*%
%ADD13R,.007X.007*%
%ADD14R,.028X.035*%
%ADD15R,.047X.014*%
%ADD16R,.053X.061*%
%ADD17R,.061X.053*%
D10*
G01X840Y2057D02*
X568D01*
Y1979D02*
Y1907D01*
X840Y2031D02*
X668Y2032D01*
X618Y1982D01*
Y1782D01*
X568Y1732D01*
X840Y2108D02*
X793Y2107D01*
X768Y2132D01*
Y2182D01*
X568Y1654D02*
Y1582D01*
X1068Y2108D02*
Y2182D01*
X990D02*
X768D01*
X840Y2006D02*
X693Y2007D01*
X643Y1957D01*
Y1782D01*
X693Y1732D01*
X1065Y1607D02*
Y1482D01*
X943D01*
X865D02*
X743D01*
X665D02*
X593D01*
X568Y1507D01*
Y1582D01*
X840Y1980D02*
X718Y1982D01*
X668Y1932D01*
Y1807D01*
X718Y1757D01*
X1143Y1607D02*
Y1482D01*
X1265D01*
X1343D02*
X1459Y1480D01*
Y1559D02*
X1458Y1646D01*
X1537D02*
X1536Y1479D01*
X840Y1954D02*
X743Y1957D01*
X693Y1907D01*
Y1832D01*
X743Y1782D01*
X1268D01*
X1347Y1719D01*
X1343Y1482D01*
X693Y1732D02*
X1018D01*
X1065Y1684D01*
Y1607D01*
X718Y1757D02*
X1068D01*
X1143Y1682D01*
Y1607D01*
X1460Y1876D02*
Y1743D01*
X1539D02*
X1537Y1646D01*
X1068Y2006D02*
X1487D01*
X1614Y1879D01*
X1613Y1639D01*
X1068Y1954D02*
X1373D01*
X1460Y1876D01*
X1068Y1980D02*
X1430D01*
X1539Y1878D02*
Y1743D01*
X1068Y2031D02*
X1540D01*
X1691Y1879D01*
Y1479D01*
X1615D01*
X1613Y1560D01*
X1068Y2082D02*
X1416D01*
X1504Y2168D01*
X1503Y2236D01*
X1068Y2057D02*
X1562D01*
X1646Y2150D01*
X1649Y2236D01*
X568Y1732D02*
X505D01*
X392D01*
X1460Y1743D02*
X1458Y1646D01*
X1430Y1980D02*
X1539Y1878D01*
X568Y2057D02*
X504D01*
X456Y2010D01*
Y1829D01*
X1068Y2182D02*
X1071Y2388D01*
X336Y1983D02*
Y2031D01*
X393Y1981D02*
Y2029D01*
X336Y1932D02*
X337Y1828D01*
X393Y1930D02*
X392Y1732D01*
X336Y2031D02*
X200Y2166D01*
Y2345D01*
X393Y2029D02*
X298Y2125D01*
X299Y2245D01*
X840Y801D02*
X568D01*
Y723D02*
Y651D01*
X840Y775D02*
X668Y776D01*
X618Y726D01*
Y526D01*
X568Y476D01*
X840Y852D02*
X793Y851D01*
X768Y876D01*
Y926D01*
X568Y398D02*
Y326D01*
X1068Y852D02*
Y926D01*
X990D02*
X768D01*
X840Y750D02*
X693Y751D01*
X643Y701D01*
Y526D01*
X693Y476D01*
X1065Y351D02*
Y226D01*
X943D01*
X865D02*
X743D01*
X665D02*
X593D01*
X568Y251D01*
Y326D01*
X840Y724D02*
X718Y726D01*
X668Y676D01*
Y551D01*
X718Y501D01*
X1143Y351D02*
Y226D01*
X1265D01*
X1343D02*
X1459Y224D01*
Y303D02*
X1458Y389D01*
X1537D02*
X1536Y222D01*
X840Y698D02*
X743Y701D01*
X693Y651D01*
Y576D01*
X743Y526D01*
X1268D01*
X1347Y463D01*
X1343Y226D01*
X693Y476D02*
X1018D01*
X1065Y428D01*
Y351D01*
X718Y501D02*
X1068D01*
X1143Y426D01*
Y351D01*
X1460Y620D02*
Y487D01*
X1539D02*
X1537Y389D01*
X1068Y750D02*
X1487D01*
X1614Y623D01*
X1613Y383D01*
X1068Y698D02*
X1373D01*
X1460Y620D01*
X1068Y724D02*
X1430D01*
X1539Y622D02*
Y487D01*
X1068Y775D02*
X1540D01*
X1691Y623D01*
Y223D01*
X1615Y222D01*
X1613Y304D01*
X1068Y826D02*
X1416D01*
X1504Y912D01*
X1503Y979D01*
X1068Y801D02*
X1562D01*
X1646Y894D01*
X1649Y979D01*
X568Y476D02*
X505D01*
X392Y475D01*
X1460Y487D02*
X1458Y389D01*
X1430Y724D02*
X1539Y622D01*
X568Y801D02*
X504D01*
X456Y754D01*
Y572D01*
X1068Y926D02*
X1071Y1132D01*
X336Y727D02*
Y775D01*
X393Y725D02*
Y773D01*
X336Y676D02*
X337Y572D01*
X393Y674D02*
X392Y475D01*
X336Y775D02*
X200Y910D01*
Y1089D01*
X393Y773D02*
X298Y869D01*
X299Y989D01*
X2747Y801D02*
X2475D01*
Y723D02*
Y651D01*
X2747Y775D02*
X2575Y776D01*
X2525Y726D01*
Y526D01*
X2475Y476D01*
X2747Y852D02*
X2700Y851D01*
X2675Y876D01*
Y926D01*
X2475Y398D02*
Y326D01*
X2975Y852D02*
Y926D01*
X2896D02*
X2675D01*
X2747Y750D02*
X2600Y751D01*
X2550Y701D01*
Y526D01*
X2600Y476D01*
X2971Y351D02*
Y226D01*
X2850D01*
X2771D02*
X2650D01*
X2571D02*
X2500D01*
X2475Y251D01*
Y326D01*
X2747Y724D02*
X2625Y726D01*
X2575Y676D01*
Y551D01*
X2625Y501D01*
X3050Y351D02*
Y226D01*
X3171D01*
X3250D02*
X3365Y224D01*
Y303D02*
Y389D01*
X3444D02*
X3443Y222D01*
X2747Y698D02*
X2650Y701D01*
X2600Y651D01*
Y576D01*
X2650Y526D01*
X3175D01*
X3254Y463D01*
X3250Y226D01*
X2600Y476D02*
X2925D01*
X2971Y428D01*
Y351D01*
X2625Y501D02*
X2975D01*
X3050Y426D01*
Y351D01*
X3367Y620D02*
Y487D01*
X3446D02*
X3444Y389D01*
X2975Y750D02*
X3394D01*
X3521Y623D01*
X3520Y383D01*
X2975Y698D02*
X3279D01*
X3367Y620D01*
X2975Y724D02*
X3337D01*
X3446Y622D02*
Y487D01*
X2975Y775D02*
X3446D01*
X3597Y623D01*
Y223D01*
X3522Y222D01*
X3520Y304D01*
X2975Y826D02*
X3323D01*
X3410Y912D01*
Y979D01*
X2975Y801D02*
X3469D01*
X3553Y894D01*
X3555Y979D01*
X2475Y476D02*
X2411D01*
X2298Y475D01*
X3367Y487D02*
X3365Y389D01*
X3337Y724D02*
X3446Y622D01*
X2475Y801D02*
X2410D01*
X2363Y754D01*
X2362Y572D01*
X2975Y926D02*
X2978Y1132D01*
X2242Y727D02*
Y775D01*
X2300Y725D02*
Y773D01*
X2242Y676D02*
X2243Y572D01*
X2300Y674D02*
X2298Y475D01*
X2242Y775D02*
X2107Y910D01*
Y1089D01*
X2300Y773D02*
X2204Y869D01*
X2205Y989D01*
X2747Y2057D02*
X2475D01*
Y1979D02*
Y1907D01*
X2747Y2031D02*
X2575Y2032D01*
X2525Y1982D01*
Y1782D01*
X2475Y1732D01*
X2747Y2108D02*
X2700Y2107D01*
X2675Y2132D01*
Y2182D01*
X2475Y1654D02*
Y1582D01*
X2975Y2108D02*
Y2182D01*
X2896D02*
X2675D01*
X2747Y2006D02*
X2600Y2007D01*
X2550Y1957D01*
Y1782D01*
X2600Y1732D01*
X2971Y1607D02*
Y1482D01*
X2850D01*
X2771D02*
X2650D01*
X2571D02*
X2500D01*
X2475Y1507D01*
Y1582D01*
X2747Y1980D02*
X2625Y1982D01*
X2575Y1932D01*
Y1807D01*
X2625Y1757D01*
X3050Y1607D02*
Y1482D01*
X3171D01*
X3250D02*
X3365Y1480D01*
Y1559D02*
Y1646D01*
X3444D02*
X3443Y1479D01*
X2747Y1954D02*
X2650Y1957D01*
X2600Y1907D01*
Y1832D01*
X2650Y1782D01*
X3175D01*
X3254Y1719D01*
X3250Y1482D01*
X2600Y1732D02*
X2925D01*
X2971Y1684D01*
Y1607D01*
X2625Y1757D02*
X2975D01*
X3050Y1682D01*
Y1607D01*
X3367Y1876D02*
Y1743D01*
X3446D02*
X3444Y1646D01*
X2975Y2006D02*
X3394D01*
X3521Y1879D01*
X3520Y1639D01*
X2975Y1954D02*
X3279D01*
X3367Y1876D01*
X2975Y1980D02*
X3337D01*
X3446Y1878D02*
Y1743D01*
X2975Y2031D02*
X3446D01*
X3597Y1879D01*
Y1479D01*
X3522D01*
X3520Y1560D01*
X2975Y2082D02*
X3323D01*
X3410Y2168D01*
Y2236D01*
X2975Y2057D02*
X3469D01*
X3553Y2150D01*
X3555Y2236D01*
X2475Y1732D02*
X2411D01*
X2298D01*
X3367Y1743D02*
X3365Y1646D01*
X3337Y1980D02*
X3446Y1878D01*
X2475Y2057D02*
X2410D01*
X2363Y2010D01*
X2362Y1829D01*
X2975Y2182D02*
X2978Y2388D01*
X2242Y1983D02*
Y2031D01*
X2300Y1981D02*
Y2029D01*
X2242Y1932D02*
X2243Y1828D01*
X2300Y1930D02*
X2298Y1732D01*
X2242Y2031D02*
X2107Y2166D01*
Y2345D01*
X2300Y2029D02*
X2204Y2125D01*
X2205Y2245D01*
D11*
X768Y2182D03*
X568Y1907D03*
Y1582D03*
X1503Y2236D03*
X1649D03*
X456Y1829D03*
X337Y1828D03*
X768Y926D03*
X568Y651D03*
Y326D03*
X1503Y979D03*
X1649D03*
X456Y572D03*
X337D03*
X2675Y926D03*
X2475Y651D03*
Y326D03*
X3410Y979D03*
X3555D03*
X2362Y572D03*
X2243D03*
X2675Y2182D03*
X2475Y1907D03*
Y1582D03*
X3410Y2236D03*
X3555D03*
X2362Y1829D03*
X2243Y1828D03*
D12*
X392Y1732D03*
X912Y2388D03*
X1071D03*
X400Y2345D03*
X200D03*
X299Y2245D03*
X394Y1565D03*
X1357Y2236D03*
X392Y475D03*
X912Y1132D03*
X1071D03*
X400Y1089D03*
X200D03*
X299Y989D03*
X394Y309D03*
X1357Y979D03*
X2298Y475D03*
X2818Y1132D03*
X2978D03*
X2307Y1089D03*
X2107D03*
X2205Y989D03*
X2301Y309D03*
X3264Y979D03*
X2298Y1732D03*
X2818Y2388D03*
X2978D03*
X2307Y2345D03*
X2107D03*
X2205Y2245D03*
X2301Y1565D03*
X3264Y2236D03*
D14*
X336Y1932D03*
Y1983D03*
Y1932D03*
Y1983D03*
X393Y1930D03*
Y1981D03*
X336Y676D03*
Y727D03*
Y676D03*
Y727D03*
X393Y674D03*
Y725D03*
X2242Y676D03*
Y727D03*
Y676D03*
Y727D03*
X2300Y674D03*
Y725D03*
X2242Y1932D03*
Y1983D03*
Y1932D03*
Y1983D03*
X2300Y1930D03*
Y1981D03*
D15*
X840Y2108D03*
Y2082D03*
Y2057D03*
Y2031D03*
Y2006D03*
Y1980D03*
Y1954D03*
X1068D03*
Y1980D03*
Y2006D03*
Y2031D03*
Y2057D03*
Y2082D03*
Y2108D03*
X840Y852D03*
Y826D03*
Y801D03*
Y775D03*
Y750D03*
Y724D03*
Y698D03*
X1068D03*
Y724D03*
Y750D03*
Y775D03*
Y801D03*
Y826D03*
Y852D03*
X2747D03*
Y826D03*
Y801D03*
Y775D03*
Y750D03*
Y724D03*
Y698D03*
X2975D03*
Y724D03*
Y750D03*
Y775D03*
Y801D03*
Y826D03*
Y852D03*
X2747Y2108D03*
Y2082D03*
Y2057D03*
Y2031D03*
Y2006D03*
Y1980D03*
Y1954D03*
X2975D03*
Y1980D03*
Y2006D03*
Y2031D03*
Y2057D03*
Y2082D03*
Y2108D03*
D16*
X990Y2182D03*
X1068D03*
X665Y1482D03*
X743D03*
X865D03*
X943D03*
X1065Y1607D03*
X1143D03*
X1065Y1482D03*
X1143D03*
X1265D03*
X1343D03*
X1458Y1646D03*
X1537D03*
X1536Y1479D03*
X1615D03*
X1460Y1743D03*
X1539D03*
X990Y926D03*
X1068D03*
X665Y226D03*
X743D03*
X865D03*
X943D03*
X1065Y351D03*
X1143D03*
X1065Y226D03*
X1143D03*
X1265D03*
X1343D03*
X1458Y389D03*
X1537D03*
X1536Y222D03*
X1615D03*
X1460Y487D03*
X1539D03*
X2896Y926D03*
X2975D03*
X2571Y226D03*
X2650D03*
X2771D03*
X2850D03*
X2971Y351D03*
X3050D03*
X2971Y226D03*
X3050D03*
X3171D03*
X3250D03*
X3365Y389D03*
X3444D03*
X3443Y222D03*
X3522D03*
X3367Y487D03*
X3446D03*
X2896Y2182D03*
X2975D03*
X2571Y1482D03*
X2650D03*
X2771D03*
X2850D03*
X2971Y1607D03*
X3050D03*
X2971Y1482D03*
X3050D03*
X3171D03*
X3250D03*
X3365Y1646D03*
X3444D03*
X3443Y1479D03*
X3522D03*
X3367Y1743D03*
X3446D03*
D17*
X568Y2057D03*
Y1979D03*
Y1732D03*
Y1654D03*
X1459Y1480D03*
Y1559D03*
X1613Y1639D03*
Y1560D03*
X568Y801D03*
Y723D03*
Y476D03*
Y398D03*
X1459Y224D03*
Y303D03*
X1613Y383D03*
Y304D03*
X2475Y801D03*
Y723D03*
Y476D03*
Y398D03*
X3365Y224D03*
Y303D03*
X3520Y383D03*
Y304D03*
X2475Y2057D03*
Y1979D03*
Y1732D03*
Y1654D03*
X3365Y1480D03*
Y1559D03*
X3520Y1639D03*
Y1560D03*
M02*
